<svg width="50" height="50" viewBox="0 0 50 50" fill="none" xmlns="http://www.w3.org/2000/svg">
<path d="M37.5 7.8125H12.5C9.91117 7.8125 7.8125 9.91117 7.8125 12.5V37.5C7.8125 40.0888 9.91117 42.1875 12.5 42.1875H37.5C40.0888 42.1875 42.1875 40.0888 42.1875 37.5V12.5C42.1875 9.91117 40.0888 7.8125 37.5 7.8125Z" stroke="white" stroke-width="2" stroke-linejoin="round"/>
<path d="M34.375 14.0625H15.625C14.7621 14.0625 14.0625 14.7621 14.0625 15.625V34.375C14.0625 35.2379 14.7621 35.9375 15.625 35.9375H34.375C35.2379 35.9375 35.9375 35.2379 35.9375 34.375V15.625C35.9375 14.7621 35.2379 14.0625 34.375 14.0625Z" stroke="white" stroke-width="2" stroke-linejoin="round"/>
<path d="M25 7.8125V4.6875M32.8125 7.8125V4.6875M17.1875 7.8125V4.6875M25 45.3125V42.1875M32.8125 45.3125V42.1875M17.1875 45.3125V42.1875M42.1875 25H45.3125M42.1875 32.8125H45.3125M42.1875 17.1875H45.3125M4.6875 25H7.8125M4.6875 32.8125H7.8125M4.6875 17.1875H7.8125" stroke="white" stroke-width="2" stroke-linecap="round" stroke-linejoin="round"/>
</svg>
