<svg width="50" height="50" viewBox="0 0 50 50" fill="none" xmlns="http://www.w3.org/2000/svg">
<path d="M9.32488 26.9531V26.9625C9.27225 27.161 9.18102 27.3471 9.05639 27.5103C8.93177 27.6735 8.7762 27.8106 8.59858 27.9136C8.42096 28.0166 8.22477 28.0836 8.02123 28.1108C7.8177 28.138 7.61081 28.1247 7.41238 28.0719C6.06551 27.7156 6.30301 26.1625 6.30301 26.1625L6.35926 25.9688C6.35926 25.9688 6.44051 25.7063 6.50613 25.5156C7.30807 23.2671 8.48863 21.1724 9.99676 19.3219C12.7999 15.9031 17.5155 12.5 24.9999 12.5C32.4843 12.5 37.1999 15.9031 40.0061 19.3219C41.5143 21.1724 42.6948 23.2671 43.4968 25.5156C43.5639 25.7089 43.6265 25.9037 43.6843 26.1L43.6936 26.1406V26.1531L43.6968 26.1594C43.7959 26.5571 43.7348 26.9778 43.5266 27.3309C43.3184 27.6839 42.9798 27.9411 42.5838 28.0468C42.1878 28.1526 41.7661 28.0985 41.4096 27.8963C41.0531 27.694 40.7904 27.3598 40.678 26.9656L40.6749 26.9531L40.6499 26.875C40.4727 26.3219 40.264 25.7793 40.0249 25.25C39.388 23.8337 38.5686 22.5068 37.5874 21.3031C35.2686 18.475 31.3874 15.625 24.9999 15.625C18.6124 15.625 14.7343 18.475 12.4124 21.3031C11.1389 22.8671 10.1404 24.636 9.45926 26.5344C9.42065 26.6472 9.38419 26.7608 9.34988 26.875L9.32488 26.9531ZM17.1874 29.6875C17.1874 27.6155 18.0105 25.6284 19.4756 24.1632C20.9407 22.6981 22.9279 21.875 24.9999 21.875C27.0719 21.875 29.059 22.6981 30.5242 24.1632C31.9893 25.6284 32.8124 27.6155 32.8124 29.6875C32.8124 31.7595 31.9893 33.7466 30.5242 35.2118C29.059 36.6769 27.0719 37.5 24.9999 37.5C22.9279 37.5 20.9407 36.6769 19.4756 35.2118C18.0105 33.7466 17.1874 31.7595 17.1874 29.6875Z" fill="white"/>
</svg>
