<svg width="24" height="24" viewBox="0 0 24 24" fill="none" xmlns="http://www.w3.org/2000/svg">
<rect width="24" height="24" fill="#FE2749"/>
<path d="M8.2123 10.0339L6.10753 5.51485V4.87517H6.74721L8.74882 9.21885H8.84167L10.833 4.87517H11.4726V5.51485L9.37819 10.0339H8.2123Z" fill="white"/>
<path d="M8.2123 10.0339L8.11741 10.0781L8.14558 10.1386H8.2123V10.0339ZM6.10753 5.51485H6.00285V5.53803L6.01263 5.55905L6.10753 5.51485ZM6.10753 4.87517V4.77049H6.00285V4.87517H6.10753ZM6.74721 4.87517L6.84228 4.83136L6.81424 4.77049H6.74721V4.87517ZM8.74882 9.21885L8.65374 9.26266L8.68179 9.32353H8.74882V9.21885ZM8.84167 9.21885V9.32353H8.90884L8.93683 9.26247L8.84167 9.21885ZM10.833 4.87517V4.77049H10.7658L10.7378 4.83154L10.833 4.87517ZM11.4726 4.87517H11.5773V4.77049H11.4726V4.87517ZM11.4726 5.51485L11.5676 5.55887L11.5773 5.53793V5.51485H11.4726ZM9.37819 10.0339V10.1386H9.44505L9.47316 10.078L9.37819 10.0339ZM8.3072 9.98974L6.20242 5.47066L6.01263 5.55905L8.11741 10.0781L8.3072 9.98974ZM6.21221 5.51485V4.87517H6.00285V5.51485H6.21221ZM6.10753 4.97985H6.74721V4.77049H6.10753V4.97985ZM6.65214 4.91898L8.65374 9.26266L8.84389 9.17504L6.84228 4.83136L6.65214 4.91898ZM8.74882 9.32353H8.84167V9.11417H8.74882V9.32353ZM8.93683 9.26247L10.9281 4.91879L10.7378 4.83154L8.74652 9.17523L8.93683 9.26247ZM10.833 4.97985H11.4726V4.77049H10.833V4.97985ZM11.368 4.87517V5.51485H11.5773V4.87517H11.368ZM11.3777 5.47083L9.28321 9.98992L9.47316 10.078L11.5676 5.55887L11.3777 5.47083ZM9.37819 9.92926H8.2123V10.1386H9.37819V9.92926Z" fill="white"/>
<path d="M13.8211 10.0339L13.6677 10.1764L13.7298 10.2433H13.8211V10.0339ZM12.3354 8.43472H12.126V8.51696L12.182 8.57721L12.3354 8.43472ZM12.3354 4.82358L12.182 4.68108L12.126 4.74133V4.82358H12.3354ZM13.8211 3.22436V3.015H13.7298L13.6677 3.08186L13.8211 3.22436ZM16.1116 3.22436L16.265 3.08186L16.2029 3.015H16.1116V3.22436ZM17.5973 4.82358H17.8067V4.74133L17.7507 4.68108L17.5973 4.82358ZM17.5973 8.43472L17.7507 8.57721L17.8067 8.51696V8.43472H17.5973ZM16.1116 10.0339V10.2433H16.2029L16.265 10.1764L16.1116 10.0339ZM13.1608 5.1331L13.0085 4.98948L12.9514 5.04997V5.1331H13.1608ZM13.1608 8.12519H12.9514V8.20843L13.0086 8.26894L13.1608 8.12519ZM13.3362 8.31091L13.184 8.45466L13.3647 8.64606L13.5105 8.42683L13.3362 8.31091ZM15.9981 4.3077L16.1724 4.42363L16.2654 4.28382L16.1491 4.16271L15.9981 4.3077ZM15.7505 4.04976L15.9015 3.90477L15.8397 3.8404H15.7505V4.04976ZM14.1822 4.04976V3.8404H14.0919L14.0299 3.90614L14.1822 4.04976ZM16.5346 4.87517L16.6887 4.73342L16.5058 4.53463L16.3589 4.76132L16.5346 4.87517ZM13.914 8.91964L13.7383 8.80579L13.6496 8.94262L13.7605 9.0621L13.914 8.91964ZM14.1822 9.20853L14.0288 9.35099L14.0909 9.41789H14.1822V9.20853ZM15.7505 9.20853V9.41789H15.8408L15.9028 9.35216L15.7505 9.20853ZM16.7719 8.12519L16.9243 8.26881L16.9813 8.20833V8.12519H16.7719ZM16.7719 5.1331H16.9813V5.05145L16.926 4.99136L16.7719 5.1331ZM13.9745 9.89144L12.4888 8.29222L12.182 8.57721L13.6677 10.1764L13.9745 9.89144ZM12.5447 8.43472V4.82358H12.126V8.43472H12.5447ZM12.4888 4.96607L13.9745 3.36686L13.6677 3.08186L12.182 4.68108L12.4888 4.96607ZM13.8211 3.43372H16.1116V3.015H13.8211V3.43372ZM15.9582 3.36686L17.4439 4.96607L17.7507 4.68108L16.265 3.08186L15.9582 3.36686ZM17.388 4.82358V8.43472H17.8067V4.82358H17.388ZM17.4439 8.29222L15.9582 9.89144L16.265 10.1764L17.7507 8.57721L17.4439 8.29222ZM16.1116 9.82458H13.8211V10.2433H16.1116V9.82458ZM12.9514 5.1331V8.12519H13.3701V5.1331H12.9514ZM13.0086 8.26894L13.184 8.45466L13.4884 8.16715L13.313 7.98144L13.0086 8.26894ZM13.5105 8.42683L16.1724 4.42363L15.8238 4.19178L13.1618 8.19498L13.5105 8.42683ZM16.1491 4.16271L15.9015 3.90477L15.5995 4.19475L15.8471 4.45269L16.1491 4.16271ZM15.7505 3.8404H14.1822V4.25912H15.7505V3.8404ZM14.0299 3.90614L13.0085 4.98948L13.3131 5.27673L14.3346 4.19339L14.0299 3.90614ZM16.3589 4.76132L13.7383 8.80579L14.0897 9.03349L16.7103 4.98901L16.3589 4.76132ZM13.7605 9.0621L14.0288 9.35099L14.3356 9.06607L14.0674 8.77718L13.7605 9.0621ZM14.1822 9.41789H15.7505V8.99917H14.1822V9.41789ZM15.9028 9.35216L16.9243 8.26881L16.6196 7.98157L15.5982 9.06491L15.9028 9.35216ZM16.9813 8.12519V5.1331H16.5626V8.12519H16.9813ZM16.926 4.99136L16.6887 4.73342L16.3805 5.01691L16.6179 5.27485L16.926 4.99136Z" fill="white"/>
<path d="M11.5774 18.3824V18.5918H11.7867V18.3824H11.5774ZM6.41861 18.3824H6.20925V18.5918H6.41861V18.3824ZM6.41861 17.0824V16.8731H6.20925V17.0824H6.41861ZM8.72974 17.0824V17.2918H8.9391V17.0824H8.72974ZM8.72974 14.4515H8.9391V14.2421H8.72974V14.4515ZM8.65752 14.4515V14.2421H8.56842L8.50664 14.3063L8.65752 14.4515ZM7.87339 15.2665V15.4759H7.96249L8.02426 15.4117L7.87339 15.2665ZM6.41861 15.2665H6.20925V15.4759H6.41861V15.2665ZM6.41861 13.853V13.6437H6.20925V13.853H6.41861ZM7.44005 13.853V14.0624H7.52922L7.59101 13.9981L7.44005 13.853ZM8.70911 12.5324L8.86007 12.6775L8.91847 12.6167V12.5324H8.70911ZM8.70911 11.5729V11.3635H8.49975V11.5729H8.70911ZM10.0091 11.5729H10.2185V11.3635H10.0091V11.5729ZM10.0091 17.0824H9.79976V17.2918H10.0091V17.0824ZM11.5774 17.0824H11.7867V16.8731H11.5774V17.0824ZM11.5774 18.1731H6.41861V18.5918H11.5774V18.1731ZM6.62797 18.3824V17.0824H6.20925V18.3824H6.62797ZM6.41861 17.2918H8.72974V16.8731H6.41861V17.2918ZM8.9391 17.0824V14.4515H8.52038V17.0824H8.9391ZM8.72974 14.2421H8.65752V14.6608H8.72974V14.2421ZM8.50664 14.3063L7.72251 15.1214L8.02426 15.4117L8.8084 14.5966L8.50664 14.3063ZM7.87339 15.0572H6.41861V15.4759H7.87339V15.0572ZM6.62797 15.2665V13.853H6.20925V15.2665H6.62797ZM6.41861 14.0624H7.44005V13.6437H6.41861V14.0624ZM7.59101 13.9981L8.86007 12.6775L8.55815 12.3873L7.28909 13.708L7.59101 13.9981ZM8.91847 12.5324V11.5729H8.49975V12.5324H8.91847ZM8.70911 11.7822H10.0091V11.3635H8.70911V11.7822ZM9.79976 11.5729V17.0824H10.2185V11.5729H9.79976ZM10.0091 17.2918H11.5774V16.8731H10.0091V17.2918ZM11.368 17.0824V18.3824H11.7867V17.0824H11.368Z" fill="white"/>
<path d="M17.6502 18.3824H15.1121L13.8534 17.0928V14.4515H12.3883V13.1411H13.8534V11.5729H15.1947V13.1411H17.4439V14.4515H15.1534V16.5562L15.6693 17.0824H17.6502V18.3824Z" fill="white"/>
</svg>
