<svg width="59" height="59" viewBox="0 0 59 59" fill="none" xmlns="http://www.w3.org/2000/svg">
<rect width="59" height="59" fill="#FE2749"/>
<path d="M20.1888 25L15.0146 13.8906V12.318H16.5871L21.5077 22.9962H21.736L26.6313 12.318H28.2038V13.8906L23.0549 25H20.1888Z" fill="white"/>
<path d="M20.1888 25L19.9555 25.1087L20.0248 25.2573H20.1888V25ZM15.0146 13.8906H14.7572V13.9476L14.7813 13.9992L15.0146 13.8906ZM15.0146 12.318V12.0607H14.7572V12.318H15.0146ZM16.5871 12.318L16.8208 12.2103L16.7519 12.0607H16.5871V12.318ZM21.5077 22.9962L21.274 23.1039L21.343 23.2536H21.5077V22.9962ZM21.736 22.9962V23.2536H21.9011L21.9699 23.1035L21.736 22.9962ZM26.6313 12.318V12.0607H26.4661L26.3973 12.2108L26.6313 12.318ZM28.2038 12.318H28.4612V12.0607H28.2038V12.318ZM28.2038 13.8906L28.4373 13.9988L28.4612 13.9473V13.8906H28.2038ZM23.0549 25V25.2573H23.2193L23.2884 25.1082L23.0549 25ZM20.4221 24.8913L15.2478 13.7819L14.7813 13.9992L19.9555 25.1087L20.4221 24.8913ZM15.2719 13.8906V12.318H14.7572V13.8906H15.2719ZM15.0146 12.5754H16.5871V12.0607H15.0146V12.5754ZM16.3534 12.4257L21.274 23.1039L21.7414 22.8885L16.8208 12.2103L16.3534 12.4257ZM21.5077 23.2536H21.736V22.7389H21.5077V23.2536ZM21.9699 23.1035L26.8652 12.4253L26.3973 12.2108L21.5021 22.889L21.9699 23.1035ZM26.6313 12.5754H28.2038V12.0607H26.6313V12.5754ZM27.9465 12.318V13.8906H28.4612V12.318H27.9465ZM27.9703 13.7824L22.8215 24.8918L23.2884 25.1082L28.4373 13.9988L27.9703 13.7824ZM23.0549 24.7427H20.1888V25.2573H23.0549V24.7427Z" fill="white"/>
<path d="M33.9766 25L33.5996 25.3503L33.7523 25.5147H33.9766V25ZM30.3242 21.0686H29.8096V21.2708L29.9472 21.4189L30.3242 21.0686ZM30.3242 12.1912L29.9472 11.8409L29.8096 11.989V12.1912H30.3242ZM33.9766 8.25979V7.74511H33.7523L33.5996 7.90948L33.9766 8.25979ZM39.6074 8.25979L39.9845 7.90948L39.8318 7.74511H39.6074V8.25979ZM43.2599 12.1912H43.7745V11.989L43.6369 11.8409L43.2599 12.1912ZM43.2599 21.0686L43.6369 21.4189L43.7745 21.2708V21.0686H43.2599ZM39.6074 25V25.5147H39.8318L39.9845 25.3503L39.6074 25ZM32.3534 12.9521L31.9789 12.599L31.8387 12.7477V12.9521H32.3534ZM32.3534 20.3077H31.8387V20.5123L31.9792 20.6611L32.3534 20.3077ZM32.7845 20.7642L32.4104 21.1176L32.8548 21.5881L33.2131 21.0492L32.7845 20.7642ZM39.3284 10.923L39.757 11.208L39.9855 10.8643L39.6997 10.5666L39.3284 10.923ZM38.7197 10.2889L39.091 9.93248L38.9391 9.77423H38.7197V10.2889ZM34.8644 10.2889V9.77423H34.6423L34.4899 9.93583L34.8644 10.2889ZM40.6474 12.318L41.0261 11.9696L40.5765 11.4809L40.2154 12.0381L40.6474 12.318ZM34.2049 22.2607L33.773 21.9808L33.555 22.3172L33.8278 22.6109L34.2049 22.2607ZM34.8644 22.9709L34.4872 23.3211L34.64 23.4856H34.8644V22.9709ZM38.7197 22.9709V23.4856H38.9418L39.0942 23.324L38.7197 22.9709ZM41.2307 20.3077L41.6052 20.6607L41.7454 20.512V20.3077H41.2307ZM41.2307 12.9521H41.7454V12.7514L41.6095 12.6037L41.2307 12.9521ZM34.3537 24.6497L30.7013 20.7183L29.9472 21.4189L33.5996 25.3503L34.3537 24.6497ZM30.8389 21.0686V12.1912H29.8096V21.0686H30.8389ZM30.7013 12.5415L34.3537 8.61009L33.5996 7.90948L29.9472 11.8409L30.7013 12.5415ZM33.9766 8.77447H39.6074V7.74511H33.9766V8.77447ZM39.2304 8.61009L42.8828 12.5415L43.6369 11.8409L39.9845 7.90948L39.2304 8.61009ZM42.7452 12.1912V21.0686H43.7745V12.1912H42.7452ZM42.8828 20.7183L39.2304 24.6497L39.9845 25.3503L43.6369 21.4189L42.8828 20.7183ZM39.6074 24.4853H33.9766V25.5147H39.6074V24.4853ZM31.8387 12.9521V20.3077H32.868V12.9521H31.8387ZM31.9792 20.6611L32.4104 21.1176L33.1587 20.4108L32.7275 19.9543L31.9792 20.6611ZM33.2131 21.0492L39.757 11.208L38.8999 10.638L32.356 20.4792L33.2131 21.0492ZM39.6997 10.5666L39.091 9.93248L38.3484 10.6453L38.9572 11.2794L39.6997 10.5666ZM38.7197 9.77423H34.8644V10.8036H38.7197V9.77423ZM34.4899 9.93583L31.9789 12.599L32.7278 13.3052L35.2389 10.642L34.4899 9.93583ZM40.2154 12.0381L33.773 21.9808L34.6369 22.5406L41.0793 12.5979L40.2154 12.0381ZM33.8278 22.6109L34.4872 23.3211L35.2415 22.6207L34.5821 21.9105L33.8278 22.6109ZM34.8644 23.4856H38.7197V22.4562H34.8644V23.4856ZM39.0942 23.324L41.6052 20.6607L40.8563 19.9546L38.3452 22.6178L39.0942 23.324ZM41.7454 20.3077V12.9521H40.7161V20.3077H41.7454ZM41.6095 12.6037L41.0261 11.9696L40.2686 12.6665L40.852 13.3006L41.6095 12.6037Z" fill="white"/>
<path d="M28.4611 45.5236V46.0382H28.9758V45.5236H28.4611ZM15.7792 45.5236H15.2645V46.0382H15.7792V45.5236ZM15.7792 42.3277V41.813H15.2645V42.3277H15.7792ZM21.4607 42.3277V42.8424H21.9754V42.3277H21.4607ZM21.4607 35.8599H21.9754V35.3452H21.4607V35.8599ZM21.2831 35.8599V35.3452H21.0641L20.9122 35.5031L21.2831 35.8599ZM19.3555 37.8636V38.3783H19.5745L19.7264 38.2205L19.3555 37.8636ZM15.7792 37.8636H15.2645V38.3783H15.7792V37.8636ZM15.7792 34.3888V33.8741H15.2645V34.3888H15.7792ZM18.2902 34.3888V34.9035H18.5094L18.6613 34.7454L18.2902 34.3888ZM21.41 31.1422L21.7811 31.4988L21.9246 31.3494V31.1422H21.41ZM21.41 28.7833V28.2687H20.8953V28.7833H21.41ZM24.6058 28.7833H25.1205V28.2687H24.6058V28.7833ZM24.6058 42.3277H24.0911V42.8424H24.6058V42.3277ZM28.4611 42.3277H28.9758V41.813H28.4611V42.3277ZM28.4611 45.0089H15.7792V46.0382H28.4611V45.0089ZM16.2938 45.5236V42.3277H15.2645V45.5236H16.2938ZM15.7792 42.8424H21.4607V41.813H15.7792V42.8424ZM21.9754 42.3277V35.8599H20.946V42.3277H21.9754ZM21.4607 35.3452H21.2831V36.3746H21.4607V35.3452ZM20.9122 35.5031L18.9846 37.5068L19.7264 38.2205L21.654 36.2167L20.9122 35.5031ZM19.3555 37.349H15.7792V38.3783H19.3555V37.349ZM16.2938 37.8636V34.3888H15.2645V37.8636H16.2938ZM15.7792 34.9035H18.2902V33.8741H15.7792V34.9035ZM18.6613 34.7454L21.7811 31.4988L21.0389 30.7856L17.9191 34.0322L18.6613 34.7454ZM21.9246 31.1422V28.7833H20.8953V31.1422H21.9246ZM21.41 29.298H24.6058V28.2687H21.41V29.298ZM24.0911 28.7833V42.3277H25.1205V28.7833H24.0911ZM24.6058 42.8424H28.4611V41.813H24.6058V42.8424ZM27.9465 42.3277V45.5236H28.9758V42.3277H27.9465Z" fill="white"/>
<path d="M43.3904 45.5236H37.1508L34.0564 42.3531V35.8599H30.4547V32.6387H34.0564V28.7833H37.3537V32.6387H42.8831V35.8599H37.2523V41.0341L38.5205 42.3277H43.3904V45.5236Z" fill="white"/>
</svg>
