<svg width="50" height="50" viewBox="0 0 50 50" fill="none" xmlns="http://www.w3.org/2000/svg">
<g clip-path="url(#clip0_18_169)">
<path d="M26.6458 43.7501L6.25 23.3542V27.5209C6.25 28.6251 6.6875 29.6876 7.47917 30.4584L23.7083 46.6876C25.3333 48.3126 27.9792 48.3126 29.6042 46.6876L42.5417 33.7501C44.1667 32.1251 44.1667 29.4792 42.5417 27.8542L26.6458 43.7501Z" fill="white"/>
<path d="M23.7083 36.2708C24.5208 37.0833 25.5833 37.5 26.6458 37.5C27.7083 37.5 28.7708 37.0833 29.5833 36.2708L42.5208 23.3333C44.1458 21.7083 44.1458 19.0625 42.5208 17.4375L26.2917 1.20833C25.5208 0.4375 24.4583 0 23.3542 0H10.4167C8.125 0 6.25 1.875 6.25 4.16667V17.1042C6.25 18.2083 6.6875 19.2708 7.47917 20.0417L23.7083 36.2708ZM10.4167 4.16667H23.3542L39.5833 20.3958L26.6458 33.3333L10.4167 17.1042V4.16667Z" fill="white"/>
<path d="M15.1042 11.4583C16.5424 11.4583 17.7083 10.2924 17.7083 8.85417C17.7083 7.41593 16.5424 6.25 15.1042 6.25C13.6659 6.25 12.5 7.41593 12.5 8.85417C12.5 10.2924 13.6659 11.4583 15.1042 11.4583Z" fill="white"/>
</g>
<defs>
<clipPath id="clip0_18_169">
<rect width="50" height="50" fill="white"/>
</clipPath>
</defs>
</svg>
