<svg width="491" height="328" viewBox="0 0 491 328" fill="none" xmlns="http://www.w3.org/2000/svg">
<path d="M217 261.864L98.2812 317.158H81.4763V300.353L195.587 247.77V245.331L81.4763 193.018V176.213L98.2812 176.213L217 231.236L217 261.864Z" fill="white"/>
<path d="M217 261.864L218.161 264.357L219.75 263.617V261.864H217ZM98.2812 317.158V319.908H98.8902L99.4423 319.651L98.2812 317.158ZM81.4763 317.158H78.7263V319.908H81.4763V317.158ZM81.4763 300.353L80.3254 297.856L78.7263 298.592V300.353H81.4763ZM195.587 247.77L196.738 250.268L198.337 249.531V247.77H195.587ZM195.587 245.331H198.337V243.566L196.733 242.831L195.587 245.331ZM81.4763 193.018H78.7263V194.783L80.3303 195.518L81.4763 193.018ZM81.4763 176.213V173.463H78.7263V176.213H81.4763ZM98.2812 176.213L99.4376 173.718L98.8875 173.463H98.2812V176.213ZM217 231.236H219.75V229.48L218.156 228.741L217 231.236ZM215.839 259.372L97.1201 314.665L99.4423 319.651L218.161 264.357L215.839 259.372ZM98.2812 314.408H81.4763V319.908H98.2812V314.408ZM84.2263 317.158V300.353H78.7263V317.158H84.2263ZM82.6272 302.851L196.738 250.268L194.436 245.272L80.3254 297.856L82.6272 302.851ZM198.337 247.77V245.331H192.837V247.77H198.337ZM196.733 242.831L82.6223 190.519L80.3303 195.518L194.441 247.83L196.733 242.831ZM84.2263 193.018V176.213H78.7263V193.018H84.2263ZM81.4763 178.963L98.2812 178.963V173.463L81.4763 173.463V178.963ZM97.1248 178.708L215.844 233.731L218.156 228.741L99.4376 173.718L97.1248 178.708ZM214.25 231.236L214.25 261.864H219.75L219.75 231.236H214.25Z" fill="white"/>
<path d="M217 114.522L220.743 118.551L222.5 116.92V114.522H217ZM174.988 153.553V159.053H177.148L178.731 157.582L174.988 153.553ZM80.121 153.553L76.3776 157.582L77.9605 159.053H80.121V153.553ZM38.1087 114.522H32.6087V116.92L34.3652 118.551L38.1087 114.522ZM38.1087 54.3495L34.3652 50.3201L32.6087 51.9519V54.3495H38.1087ZM80.121 15.3187V9.81866H77.9605L76.3776 11.2892L80.121 15.3187ZM174.988 15.3187L178.731 11.2892L177.148 9.81866H174.988V15.3187ZM217 54.3495H222.5V51.9519L220.743 50.3201L217 54.3495ZM88.2524 131.869L84.4794 135.871L86.0684 137.369H88.2524V131.869ZM166.856 131.869V137.369H169.043L170.633 135.868L166.856 131.869ZM171.735 127.261L175.512 131.26L180.54 126.511L174.78 122.681L171.735 127.261ZM66.5687 57.331L69.6141 52.7511L65.9414 50.309L62.7597 53.3634L66.5687 57.331ZM59.7925 63.8362L55.9835 59.8685L54.2925 61.492V63.8362H59.7925ZM59.7925 105.035H54.2925V107.409L56.0194 109.037L59.7925 105.035ZM81.4763 43.2365L77.7525 39.1889L72.5301 43.9935L78.4855 47.8523L81.4763 43.2365ZM187.727 112.083L184.736 116.698L188.331 119.027L191.469 116.113L187.727 112.083ZM195.316 105.035L199.059 109.066L200.816 107.434V105.035H195.316ZM195.316 63.8362H200.816V61.4627L199.089 59.8344L195.316 63.8362ZM166.856 37.0025L170.629 33.0007L169.04 31.5025H166.856V37.0025ZM88.2524 37.0025V31.5025H86.1073L84.5286 32.9548L88.2524 37.0025ZM213.257 110.493L171.244 149.523L178.731 157.582L220.743 118.551L213.257 110.493ZM174.988 148.053L80.121 148.053V159.053L174.988 159.053V148.053ZM83.8645 149.523L41.8521 110.493L34.3652 118.551L76.3776 157.582L83.8645 149.523ZM43.6087 114.522L43.6087 54.3495L32.6087 54.3495L32.6087 114.522H43.6087ZM41.8521 58.3789L83.8645 19.3481L76.3776 11.2892L34.3652 50.3201L41.8521 58.3789ZM80.121 20.8187L174.988 20.8187V9.81866L80.121 9.81866V20.8187ZM171.244 19.3481L213.257 58.3789L220.743 50.3201L178.731 11.2892L171.244 19.3481ZM211.5 54.3495L211.5 114.522H222.5L222.5 54.3495L211.5 54.3495ZM88.2524 137.369L166.856 137.369V126.369L88.2524 126.369V137.369ZM170.633 135.868L175.512 131.26L167.959 123.263L163.08 127.87L170.633 135.868ZM174.78 122.681L69.6141 52.7511L63.5233 61.9109L168.69 131.841L174.78 122.681ZM62.7597 53.3634L55.9835 59.8685L63.6014 67.8038L70.3776 61.2987L62.7597 53.3634ZM54.2925 63.8362L54.2925 105.035L65.2925 105.035V63.8362H54.2925ZM56.0194 109.037L84.4794 135.871L92.0255 127.867L63.5655 101.034L56.0194 109.037ZM78.4855 47.8523L184.736 116.698L190.718 107.467L84.4671 38.6208L78.4855 47.8523ZM191.469 116.113L199.059 109.066L191.574 101.005L183.984 108.052L191.469 116.113ZM200.816 105.035L200.816 63.8362H189.816L189.816 105.035H200.816ZM199.089 59.8344L170.629 33.0007L163.083 41.0042L191.543 67.8379L199.089 59.8344ZM166.856 31.5025H88.2524L88.2524 42.5024L166.856 42.5024V31.5025ZM84.5286 32.9548L77.7525 39.1889L85.2001 47.2842L91.9763 41.0501L84.5286 32.9548Z" fill="white"/>
<path d="M436.321 173.463H441.821V167.963H436.321V173.463ZM436.321 308.987V314.487H441.821V308.987H436.321ZM402.169 308.987L396.669 308.987V314.487H402.169V308.987ZM402.169 248.273H407.669V242.773H402.169V248.273ZM333.052 248.273V242.773H327.552V248.273H333.052ZM333.052 250.17H327.552V252.511L329.239 254.133L333.052 250.17ZM354.465 270.769H359.965V268.429L358.278 266.806L354.465 270.769ZM354.465 308.987V314.487H359.965V308.987H354.465ZM317.331 308.987H311.831V314.487H317.331V308.987ZM317.331 282.153H322.831V279.811L321.142 278.188L317.331 282.153ZM282.637 248.815L286.448 244.849L284.851 243.315H282.637V248.815ZM257.43 248.815H251.93V254.315H257.43V248.815ZM257.43 214.663V209.163H251.93V214.663H257.43ZM402.169 214.663V220.163H407.669V214.663H402.169ZM402.169 173.463V167.963H396.669V173.463H402.169ZM430.821 173.463V308.987H441.821V173.463H430.821ZM436.321 303.487H402.169V314.487H436.321V303.487ZM407.669 308.987V248.273H396.669V308.987L407.669 308.987ZM402.169 242.773L333.052 242.773V253.773L402.169 253.773V242.773ZM327.552 248.273V250.17H338.552V248.273H327.552ZM329.239 254.133L350.651 274.733L358.278 266.806L336.865 246.206L329.239 254.133ZM348.965 270.769V308.987H359.965V270.769H348.965ZM354.465 303.487H317.331V314.487H354.465V303.487ZM322.831 308.987V282.153H311.831V308.987H322.831ZM321.142 278.188L286.448 244.849L278.826 252.78L313.52 286.119L321.142 278.188ZM282.637 243.315H257.43V254.315H282.637V243.315ZM262.93 248.815V214.663H251.93L251.93 248.815H262.93ZM257.43 220.163L402.169 220.163V209.163L257.43 209.163V220.163ZM407.669 214.663V173.463H396.669V214.663H407.669ZM402.169 178.963H436.321V167.963H402.169V178.963Z" fill="white"/>
<path d="M436.321 13.9239V80.6016L402.44 113.669H333.052V152.158L298.629 152.158V113.669L257.43 113.669V78.4332L298.629 78.4332V19.3448L333.052 19.3448V79.5174L388.346 79.5174L402.169 65.965V13.9239H436.321Z" fill="white"/>
</svg>
