<svg width="32" height="40" viewBox="0 0 32 40" fill="none" xmlns="http://www.w3.org/2000/svg">
<path d="M27.12 27.002C28.3016 26.3672 29.6542 26.0059 31.0946 26.0059H31.0995C31.246 26.0059 31.3143 25.8301 31.2069 25.7324C29.7089 24.3881 27.9977 23.3023 26.1434 22.5195C26.1239 22.5098 26.1044 22.5049 26.0848 22.4951C29.1171 20.293 31.0897 16.7139 31.0897 12.6758C31.0897 5.98633 25.6796 0.566406 19.0048 0.566406C12.33 0.566406 6.92468 5.98633 6.92468 12.6758C6.92468 16.7139 8.89734 20.293 11.9344 22.4951C11.9149 22.5049 11.8954 22.5098 11.8759 22.5195C9.69324 23.4424 7.73523 24.7656 6.05066 26.4551C4.37582 28.1269 3.04242 30.1087 2.12488 32.29C1.22211 34.4261 0.734895 36.7147 0.689331 39.0332C0.688028 39.0853 0.697169 39.1372 0.716215 39.1857C0.735261 39.2342 0.763828 39.2784 0.800231 39.3158C0.836635 39.3531 0.880139 39.3827 0.92818 39.403C0.97622 39.4232 1.02783 39.4336 1.07996 39.4336H4.00476C4.21472 39.4336 4.3905 39.2627 4.39539 39.0527C4.49304 35.2832 6.00183 31.7529 8.67273 29.0772C11.4315 26.3086 15.1034 24.7852 19.0096 24.7852C21.7782 24.7852 24.4344 25.5518 26.7245 26.9873C26.7833 27.0243 26.8508 27.0451 26.9203 27.0477C26.9897 27.0502 27.0586 27.0345 27.12 27.002ZM19.0096 21.0742C16.7733 21.0742 14.6688 20.2002 13.0819 18.6133C12.3011 17.8345 11.6821 16.909 11.2606 15.8899C10.8391 14.8709 10.6234 13.7785 10.6259 12.6758C10.6259 10.4346 11.4999 8.32519 13.0819 6.73828C14.6639 5.15137 16.7684 4.27734 19.0096 4.27734C21.2509 4.27734 23.3505 5.15137 24.9374 6.73828C25.7182 7.51704 26.3371 8.4426 26.7587 9.46163C27.1802 10.4807 27.3959 11.573 27.3934 12.6758C27.3934 14.917 26.5194 17.0264 24.9374 18.6133C23.3505 20.2002 21.246 21.0742 19.0096 21.0742Z" fill="white"/>
</svg>
