<svg width="50" height="50" viewBox="0 0 50 50" fill="none" xmlns="http://www.w3.org/2000/svg">
<path d="M34.2813 15.5313C34.7215 15.1122 35.3073 14.8805 35.9151 14.8851C36.5229 14.8897 37.1051 15.1302 37.539 15.5559C37.9728 15.9816 38.2243 16.5592 38.2403 17.1668C38.2564 17.7744 38.0358 18.3645 37.6251 18.8125L25.1563 34.4063C24.9419 34.6372 24.6831 34.8225 24.3955 34.9512C24.1078 35.0798 23.7972 35.1491 23.4821 35.1549C23.167 35.1608 22.854 35.103 22.5618 34.9851C22.2696 34.8672 22.0041 34.6916 21.7813 34.4688L13.5126 26.2C13.2823 25.9855 13.0976 25.7267 12.9695 25.4392C12.8414 25.1517 12.7725 24.8413 12.767 24.5267C12.7614 24.212 12.8193 23.8994 12.9372 23.6075C13.0551 23.3157 13.2305 23.0506 13.4531 22.828C13.6756 22.6055 13.9407 22.43 14.2326 22.3121C14.5244 22.1943 14.837 22.1364 15.1517 22.1419C15.4664 22.1475 15.7767 22.2164 16.0642 22.3445C16.3517 22.4726 16.6105 22.6572 16.8251 22.8875L23.3688 29.4281L34.2219 15.6C34.2415 15.576 34.2623 15.553 34.2844 15.5313H34.2813Z" fill="white"/>
</svg>
